<?xml version="1.0" standalone="no"?>
<!DOCTYPE svg PUBLIC "-//W3C//DTD SVG 20010904//EN"
 "http://www.w3.org/TR/2001/REC-SVG-20010904/DTD/svg10.dtd">
<svg version="1.0" xmlns="http://www.w3.org/2000/svg"
 width="1280.000000pt" height="1206.000000pt" viewBox="0 0 1280.000000 1206.000000"
 preserveAspectRatio="xMidYMid meet">
<metadata>
Created by potrace 1.15, written by Peter Selinger 2001-2017
</metadata>
<g transform="translate(0.000000,1206.000000) scale(0.100000,-0.100000)"
fill="#000000" stroke="none">
<path d="M842 12039 c-47 -24 -245 -226 -236 -241 3 -5 -13 -36 -35 -68 -124
-176 -176 -396 -170 -710 2 -93 -1 -138 -13 -175 -11 -35 -18 -108 -23 -240
-6 -183 -7 -190 -31 -210 -19 -17 -23 -28 -21 -67 2 -26 6 -51 10 -54 4 -4 7
-24 7 -45 0 -21 5 -50 12 -66 6 -16 14 -120 19 -243 8 -243 20 -319 81 -490
22 -63 43 -130 45 -147 5 -28 2 -33 -16 -33 -25 0 -27 -12 -6 -30 8 -7 15 -19
15 -27 0 -8 9 -26 20 -40 24 -30 26 -63 5 -63 -22 0 -18 -13 10 -40 15 -14 23
-30 20 -40 -3 -10 1 -23 10 -30 19 -16 19 -86 0 -120 -20 -35 -18 -42 8 -38
19 3 22 -1 20 -32 l-3 -35 34 39 c41 47 55 34 25 -24 -30 -57 -38 -178 -16
-211 12 -17 14 -26 5 -36 -20 -25 2 -27 47 -5 25 12 48 22 50 22 14 0 1 -24
-35 -65 -44 -51 -47 -60 -24 -69 14 -5 16 -16 11 -57 -5 -41 -4 -50 8 -45 19
7 13 -382 -9 -509 -8 -49 -18 -126 -22 -170 -4 -44 -10 -89 -14 -100 -4 -11
-44 -64 -89 -118 -113 -137 -110 -150 20 -61 45 30 84 53 87 50 3 -4 -8 -23
-25 -44 -65 -81 -103 -134 -103 -143 0 -19 29 -8 55 22 37 44 43 28 12 -30
-15 -27 -40 -98 -56 -159 -28 -107 -31 -113 -154 -293 -69 -101 -124 -185
-122 -188 3 -2 24 13 49 32 62 51 178 128 184 122 3 -2 -23 -34 -56 -70 -42
-44 -63 -76 -68 -100 -9 -47 0 -53 36 -26 34 25 35 22 15 -56 -8 -31 -15 -90
-15 -130 0 -39 -5 -75 -10 -78 -6 -3 -10 -14 -10 -23 0 -11 10 -6 36 19 35 32
36 33 30 9 -14 -50 -18 -147 -8 -166 10 -17 11 -15 12 11 0 33 15 55 37 55 10
0 13 -31 13 -133 0 -86 5 -153 15 -191 27 -102 152 -330 311 -568 120 -178
174 -270 249 -423 52 -108 95 -207 95 -220 0 -18 4 -22 19 -18 24 6 33 -18 20
-57 -6 -17 -8 -38 -5 -47 6 -14 10 -13 34 10 39 37 45 34 38 -16 -5 -34 -3
-49 12 -68 10 -13 37 -72 60 -130 52 -134 67 -245 82 -615 8 -195 8 -284 0
-320 -19 -87 -155 -343 -291 -550 -126 -191 -209 -338 -209 -368 0 -8 -11 -23
-25 -34 -15 -12 -23 -26 -19 -35 3 -8 -7 -33 -21 -56 -15 -22 -25 -46 -22 -53
2 -7 -5 -24 -15 -38 -12 -15 -15 -26 -9 -28 17 -6 13 -25 -15 -66 -42 -61
-144 -258 -144 -277 0 -35 -44 -49 -210 -69 -157 -19 -194 -47 -305 -230 -71
-116 -112 -205 -121 -259 -4 -23 -11 -44 -15 -47 -12 -7 -12 -119 0 -142 5 -9
14 -29 20 -45 16 -42 67 -69 121 -64 36 4 59 -2 116 -30 124 -61 208 -55 334
23 40 24 74 44 76 44 2 0 23 -14 46 -30 62 -44 171 -80 244 -80 137 0 537 150
608 229 11 12 27 21 38 21 20 0 23 11 7 27 -16 16 -2 33 26 33 18 0 33 13 56
48 18 26 47 63 65 82 36 38 96 161 139 285 31 87 49 119 39 66 -9 -45 17 -39
31 7 10 36 25 43 25 11 0 -11 4 -18 9 -15 9 6 25 69 36 143 7 46 25 59 25 18
0 -14 4 -25 8 -25 11 0 32 69 32 103 0 14 5 29 10 32 6 3 10 22 10 41 0 42 15
74 35 74 8 0 15 8 15 18 0 10 10 26 21 36 20 17 21 25 16 120 -3 55 -9 111
-13 124 -4 13 -2 22 5 22 6 0 13 -11 17 -25 3 -14 10 -25 14 -25 12 0 20 28
13 45 -3 9 2 21 11 28 9 7 23 38 31 69 15 55 58 118 81 118 7 0 28 19 48 42
19 24 37 40 41 36 3 -3 1 -95 -4 -204 -6 -110 -10 -235 -10 -279 1 -44 0 -100
-1 -125 -6 -110 -5 -125 8 -122 9 1 12 -20 13 -80 2 -114 2 -114 -39 -198
l-37 -75 -65 -5 c-80 -7 -100 -17 -171 -89 -68 -69 -79 -99 -79 -213 0 -83 1
-89 24 -99 13 -6 30 -26 39 -44 12 -25 21 -32 44 -32 15 0 54 -7 85 -16 150
-42 417 -49 473 -12 26 18 47 20 175 20 136 0 150 2 224 29 62 23 76 32 64 40
-14 8 -12 15 12 55 58 93 102 201 122 297 18 87 19 121 14 277 l-5 178 34 38
c42 46 45 64 10 55 -22 -5 -24 -3 -21 23 3 15 9 40 15 55 11 30 5 58 -16 71
-22 13 -15 47 12 57 31 12 31 14 3 41 -16 15 -19 23 -10 26 6 3 12 11 12 18 0
8 9 22 19 32 13 12 21 36 24 68 3 28 9 61 14 73 9 23 11 22 52 -32 43 -56 44
-57 37 -116 -6 -47 -4 -60 7 -60 7 0 18 5 25 12 16 16 15 8 -4 -64 -9 -35 -13
-76 -9 -97 4 -22 0 -53 -10 -80 -23 -65 -37 -170 -30 -219 7 -51 20 -48 29 7
4 25 15 46 28 55 29 20 33 14 14 -22 -20 -38 -9 -48 21 -20 27 25 40 19 23
-12 -10 -18 -8 -24 7 -36 17 -13 17 -15 1 -25 -10 -5 -18 -14 -18 -18 0 -10
36 -3 137 28 123 38 117 20 -15 -48 -106 -54 -135 -75 -211 -150 -137 -134
-186 -246 -186 -426 0 -123 7 -144 70 -207 51 -51 91 -62 189 -55 58 5 95 2
130 -8 81 -25 208 -35 273 -23 32 6 85 12 118 13 33 1 68 6 77 10 9 4 23 3 29
-1 7 -4 45 -8 83 -9 48 -2 135 -19 266 -53 154 -40 234 -55 380 -71 333 -36
729 -65 1313 -97 l297 -16 108 -39 c59 -22 120 -45 135 -51 15 -6 31 -7 35 -3
4 4 1 10 -5 12 -12 4 -19 33 -9 33 2 0 26 -9 53 -21 37 -16 59 -19 93 -14 25
4 99 5 165 3 175 -5 460 -1 500 6 26 5 36 13 41 32 3 13 15 29 25 34 23 13 34
67 20 103 -9 24 -8 27 9 27 11 0 20 7 20 15 0 21 20 19 77 -7 79 -35 348 -63
363 -38 12 20 125 1 436 -74 344 -83 476 -107 869 -156 379 -47 665 -75 905
-90 96 -6 234 -15 305 -21 72 -6 175 -12 230 -14 114 -3 123 -5 375 -85 102
-32 246 -77 320 -100 114 -35 149 -51 222 -101 99 -68 280 -153 371 -174 46
-11 128 -15 316 -15 l254 0 -7 108 c-4 59 -12 111 -17 117 -5 5 -9 24 -9 42 0
19 -6 49 -14 67 -9 22 -11 37 -5 43 13 13 -96 160 -169 231 -86 82 -219 164
-452 279 -118 59 -233 119 -255 133 -87 59 -323 163 -465 206 -65 20 -70 23
-40 24 34 2 33 3 -20 20 -30 11 -65 19 -77 19 -12 1 -23 5 -25 11 -5 17 -106
30 -232 30 -66 0 -140 5 -163 10 -112 26 -215 32 -703 40 -577 9 -631 14 -867
75 -154 41 -228 67 -340 123 -164 83 -387 236 -506 347 -65 61 -202 289 -220
366 -4 15 -14 123 -22 240 -21 286 -37 412 -90 706 -68 372 -115 544 -188 688
-28 57 -62 183 -52 194 3 2 15 -5 28 -17 43 -41 39 -22 -7 31 -41 46 -76 121
-63 134 5 4 87 -79 113 -115 7 -9 15 -14 19 -11 5 6 -94 144 -157 217 -15 18
-28 43 -28 55 0 12 -25 52 -54 89 -79 96 -138 223 -141 301 -2 65 -28 139
-120 352 -75 173 -106 231 -214 393 -229 346 -370 522 -606 757 -240 240 -600
518 -872 673 -266 152 -688 356 -789 381 -21 5 -81 24 -131 42 -70 24 -93 36
-93 49 0 18 26 30 67 30 12 0 25 5 29 12 7 11 -23 10 -185 -9 l-54 -6 6 33 c4
18 15 39 25 46 15 12 13 13 -18 7 -19 -3 -59 -17 -88 -30 -68 -31 -92 -25 -63
15 11 16 40 47 65 70 25 23 46 45 46 48 0 3 -66 -28 -146 -70 -80 -41 -144
-71 -142 -67 3 9 134 117 191 159 55 40 41 40 -60 1 -358 -140 -397 -149 -567
-129 -69 8 -121 19 -127 27 -6 7 -9 29 -7 49 3 28 1 34 -11 31 -51 -14 -52
-13 -36 46 12 45 -18 33 -43 -18 -12 -25 -26 -45 -32 -45 -15 0 -4 86 14 112
31 44 16 52 -24 13 -49 -47 -53 -32 -15 60 27 65 32 111 13 117 -8 3 -5 13 9
32 26 33 21 54 -16 62 -151 34 -211 53 -211 65 0 5 19 18 43 30 69 36 107 69
107 95 0 14 11 31 30 44 16 11 27 26 24 34 -3 7 7 25 21 41 17 17 23 30 16 34
-6 4 -2 16 12 31 18 21 22 37 22 92 0 57 4 71 24 92 14 15 21 27 18 27 -4 1
-11 3 -17 4 -5 1 -12 3 -15 4 -3 0 8 19 24 42 25 34 28 44 18 60 -9 15 -9 23
0 37 103 146 194 470 192 680 -2 123 43 276 89 305 6 4 12 25 12 46 0 22 6 44
15 51 23 19 18 31 -10 24 -14 -3 -25 -4 -25 0 0 7 39 77 51 92 5 6 22 43 38
82 35 84 47 190 32 281 -9 55 -7 75 14 160 79 314 128 699 123 956 -2 78 2
136 10 166 13 43 12 50 -8 95 -13 27 -26 67 -29 89 l-6 40 -89 3 c-61 2 -103
-2 -136 -13 -56 -19 -244 -140 -380 -245 -135 -105 -530 -506 -530 -538 0 -5
-17 -25 -39 -45 -28 -26 -45 -33 -63 -30 -16 3 -48 -7 -87 -27 -65 -32 -106
-37 -58 -6 27 18 36 36 17 36 -5 0 -26 -11 -46 -25 -21 -14 -51 -25 -70 -25
-78 0 -301 68 -420 128 -22 11 -72 22 -114 26 -48 4 -79 12 -86 21 -15 21 -24
19 -24 -5 0 -23 -4 -24 -31 -10 -18 10 -24 4 -20 -22 0 -4 -8 -12 -18 -18 -16
-8 -21 -6 -26 10 -7 21 -25 28 -25 10 0 -23 -19 -7 -53 43 -19 28 -63 83 -96
120 -34 38 -72 89 -85 115 -36 70 -150 241 -259 385 -54 71 -97 134 -97 142 0
16 -78 89 -116 108 -45 22 -180 55 -274 67 -46 5 -85 10 -85 10 0 0 -19 -10
-43 -21z m4195 -7491 c-3 -8 -6 -5 -6 6 -1 11 2 17 5 13 3 -3 4 -12 1 -19z"/>
</g>
</svg>
