<?xml version="1.0" standalone="no"?>
<!DOCTYPE svg PUBLIC "-//W3C//DTD SVG 20010904//EN"
 "http://www.w3.org/TR/2001/REC-SVG-20010904/DTD/svg10.dtd">
<svg version="1.0" xmlns="http://www.w3.org/2000/svg"
 width="1280.000000pt" height="1276.000000pt" viewBox="0 0 1280.000000 1276.000000"
 preserveAspectRatio="xMidYMid meet">
<metadata>
Created by potrace 1.15, written by Peter Selinger 2001-2017
</metadata>
<g transform="translate(0.000000,1276.000000) scale(0.100000,-0.100000)"
fill="#000000" stroke="none">
<path d="M8702 12738 c-23 -13 -66 -52 -96 -87 -82 -95 -112 -200 -126 -439
-20 -352 52 -985 135 -1184 6 -16 1 -18 -38 -18 l-46 0 30 -57 c69 -137 78
-253 49 -593 -14 -158 -21 -297 -18 -364 l5 -108 -61 7 c-34 4 -158 9 -277 11
l-216 2 -69 32 c-732 337 -1586 561 -2429 640 -508 47 -996 38 -1465 -26 -174
-24 -275 -44 -490 -96 -431 -106 -792 -259 -1115 -473 -155 -102 -729 -565
-980 -789 -676 -604 -1062 -1133 -1299 -1779 -89 -244 -137 -441 -177 -737
-17 -123 -17 -629 -1 -765 48 -381 88 -586 233 -1197 12 -48 25 -86 29 -83 4
2 13 18 20 35 16 39 23 38 39 -8 171 -496 375 -968 603 -1397 644 -1210 1461
-2138 2363 -2680 557 -335 1073 -501 1695 -545 85 -6 182 -15 215 -21 182 -28
574 -21 820 16 325 48 909 206 1203 324 327 131 572 302 667 465 50 86 86 272
56 291 -6 3 -4 20 5 42 21 50 10 194 -19 242 -21 35 -84 70 -126 71 -23 0 -24
1 -6 20 18 20 17 20 -41 20 -32 0 -90 -7 -129 -15 -38 -8 -71 -15 -73 -15 -1
0 7 18 18 41 l21 41 -23 -7 c-56 -17 -178 -80 -375 -194 -254 -145 -395 -215
-484 -238 -57 -14 -74 -15 -122 -4 -93 21 -154 73 -251 217 -58 85 -79 123
-66 119 17 -5 14 4 -16 57 -59 105 -166 237 -291 358 -136 133 -201 187 -403
331 -162 117 -267 175 -384 214 -94 32 -149 67 -317 208 -180 151 -313 286
-489 497 -269 321 -353 406 -590 590 -285 222 -354 306 -354 430 0 53 5 75 29
119 237 437 1181 632 1820 376 77 -31 169 -83 213 -120 41 -35 46 -31 22 16
-12 23 -20 43 -18 45 6 6 231 -72 289 -101 29 -14 54 -25 56 -25 2 0 -6 18
-17 41 -12 23 -19 43 -16 46 5 5 108 -3 361 -27 55 -6 143 -17 195 -26 272
-46 348 -90 645 -373 94 -89 226 -207 295 -261 142 -111 239 -208 397 -395
167 -197 262 -282 487 -434 292 -198 371 -283 635 -687 350 -536 471 -688 656
-824 33 -25 62 -48 65 -51 6 -7 77 -23 179 -40 62 -11 81 -19 117 -50 24 -20
69 -50 101 -65 53 -26 67 -29 163 -29 119 1 241 16 317 39 54 17 119 78 184
172 112 164 152 425 86 568 -35 77 -149 190 -237 235 -36 19 -125 70 -199 115
-188 113 -270 196 -428 431 -81 121 -181 250 -304 395 -101 119 -310 371 -464
560 -153 190 -312 385 -352 435 -40 49 -73 92 -73 97 0 15 139 48 206 48 38 0
105 7 149 16 144 29 136 25 108 57 -15 17 -16 20 -2 15 11 -5 22 6 38 35 12
23 31 58 42 77 10 19 19 47 19 62 0 40 -35 126 -68 167 -15 20 -32 42 -36 49
-6 10 42 12 246 11 228 -1 309 5 388 27 22 7 24 6 11 -9 -12 -15 -10 -17 15
-17 101 1 242 38 356 94 45 22 71 30 73 23 2 -7 11 -39 20 -71 34 -122 89
-211 290 -466 67 -85 135 -175 152 -200 87 -132 155 -285 255 -573 37 -109 86
-245 109 -302 37 -96 100 -199 143 -234 10 -8 31 -41 47 -73 77 -152 211 -232
414 -249 55 -4 135 -13 177 -19 188 -26 331 45 406 201 108 228 107 226 107
329 0 88 -3 101 -33 163 -19 38 -57 96 -85 129 -29 34 -78 97 -111 142 -32 44
-106 141 -164 216 -341 435 -412 638 -412 1176 0 100 -5 207 -11 236 -5 29
-37 141 -70 248 -34 107 -69 223 -80 257 -22 74 -27 214 -8 270 23 70 70 131
116 148 125 48 296 361 353 646 11 56 20 122 20 148 l1 46 20 -37 c11 -21 21
-38 23 -38 1 0 -1 21 -5 48 -5 26 -13 90 -19 142 -5 52 -12 112 -16 133 -3 20
-2 37 3 37 5 0 24 -16 43 -35 18 -19 35 -33 37 -32 1 2 -2 19 -8 38 -27 88
-37 138 -38 182 0 26 -4 64 -10 85 -13 53 -34 262 -30 295 4 27 6 25 34 -30
17 -32 31 -60 33 -62 1 -2 5 -2 8 2 4 3 -25 100 -64 214 -121 357 -163 520
-183 717 -19 184 13 336 86 415 84 91 185 267 255 447 17 43 46 113 65 154 19
41 42 107 51 145 23 103 57 197 144 410 262 636 380 965 461 1283 51 200 70
327 72 489 2 119 0 134 -19 159 -35 47 -123 94 -176 94 -42 0 -68 -18 -314
-216 -165 -132 -225 -174 -330 -229 -309 -162 -473 -265 -599 -375 -102 -89
-109 -92 -244 -92 -118 0 -162 8 -456 78 -98 23 -139 27 -375 33 -170 5 -272
11 -285 19 -11 6 -16 12 -11 12 6 0 -12 14 -38 30 -69 44 -193 171 -447 460
-281 320 -422 465 -524 543 -134 101 -194 117 -273 75z m-173 -2858 c65 -9 80
-19 81 -55 0 -11 7 -45 16 -75 30 -106 33 -98 -28 -92 -33 3 -72 15 -105 34
-30 17 -53 24 -53 18 0 -7 -20 0 -47 16 -27 15 -106 58 -178 95 l-129 68 54 4
c74 5 310 -3 389 -13z m104 -241 c29 0 35 -6 59 -55 21 -42 23 -51 10 -42 -64
47 -132 101 -132 105 0 3 7 2 16 -1 9 -3 30 -6 47 -7z m-5724 -7198 c60 -43
338 -173 536 -250 527 -207 628 -248 754 -307 330 -157 475 -272 752 -594 68
-80 157 -180 198 -222 40 -43 70 -78 66 -78 -5 0 -72 18 -149 41 -522 150
-897 307 -1241 520 -87 53 -161 114 -340 277 -251 229 -456 434 -554 555 -64
79 -69 91 -22 58z"/>
</g>
</svg>
