<?xml version="1.0" standalone="no"?>
<!DOCTYPE svg PUBLIC "-//W3C//DTD SVG 20010904//EN"
 "http://www.w3.org/TR/2001/REC-SVG-20010904/DTD/svg10.dtd">
<svg version="1.0" xmlns="http://www.w3.org/2000/svg"
 width="1280.000000pt" height="1181.000000pt" viewBox="0 0 1280.000000 1181.000000"
 preserveAspectRatio="xMidYMid meet">
<metadata>
Created by potrace 1.15, written by Peter Selinger 2001-2017
</metadata>
<g transform="translate(0.000000,1181.000000) scale(0.100000,-0.100000)"
fill="#000000" stroke="none">
<path d="M3143 11778 c-23 -19 -97 -59 -165 -88 -297 -127 -600 -286 -631
-331 -22 -30 -6 -74 45 -126 57 -58 105 -73 150 -46 18 10 121 59 228 108 107
48 199 90 204 93 4 2 5 -11 1 -29 -9 -42 -142 -552 -230 -879 -36 -135 -65
-259 -65 -276 0 -38 35 -73 115 -113 78 -40 120 -40 160 -2 39 38 264 155 443
231 156 66 376 175 393 196 14 17 5 83 -16 125 -21 40 -70 63 -130 62 -38 -1
-97 -20 -249 -82 -110 -45 -215 -90 -234 -101 l-34 -20 7 32 c28 136 118 510
130 538 20 46 165 624 165 656 0 16 -6 24 -17 24 -9 0 -34 12 -55 26 -29 20
-54 28 -106 32 -65 4 -69 3 -109 -30z"/>
<path d="M3187 9752 c-21 -23 -22 -90 -3 -136 18 -42 23 -46 99 -57 34 -6 123
-22 197 -37 l135 -28 -105 -86 c-58 -47 -224 -182 -370 -300 -295 -237 -290
-230 -251 -321 30 -71 61 -97 104 -90 41 6 193 -17 367 -57 69 -16 157 -34
195 -40 39 -7 90 -16 113 -20 36 -7 47 -5 62 10 44 44 32 139 -22 174 -23 15
-187 62 -333 94 l-80 18 150 128 c83 70 161 135 175 144 36 23 381 306 407
334 l23 24 -21 42 c-11 22 -38 57 -60 77 -33 29 -46 35 -86 35 -25 0 -118 16
-207 35 -163 35 -301 58 -411 70 -52 6 -63 4 -78 -13z"/>
<path d="M3025 8276 c-11 -7 -81 -30 -154 -51 -140 -38 -346 -107 -393 -132
-42 -21 -39 -68 9 -117 45 -46 33 -47 296 33 97 29 98 29 91 8 -7 -24 -149
-357 -250 -588 -35 -80 -64 -153 -64 -161 0 -16 64 -80 97 -97 30 -15 68 -14
82 3 14 16 177 72 326 111 111 29 243 73 263 88 6 5 12 22 12 38 0 49 -18 79
-57 95 -35 15 -44 14 -192 -21 -86 -20 -164 -41 -174 -47 -10 -5 -20 -8 -22
-6 -4 4 123 325 148 373 25 48 167 394 167 406 0 15 -38 47 -77 65 -41 18 -83
18 -108 0z"/>
<path d="M9515 7576 c-16 -24 -45 -142 -45 -184 0 -22 -3 -23 -42 -18 -92 13
-330 26 -458 26 -273 0 -580 -42 -842 -115 -187 -53 -543 -179 -702 -249 l-53
-24 -20 74 c-14 53 -17 77 -9 83 6 4 53 23 104 41 81 29 112 49 112 74 0 15
-99 3 -167 -19 -42 -14 -79 -22 -83 -18 -4 4 -13 23 -20 41 -16 42 -19 39 120
88 109 38 164 74 143 95 -22 22 -252 -33 -298 -71 -8 -7 -22 2 -46 26 -39 42
-101 73 -144 74 -29 0 -260 -76 -410 -135 -99 -38 -469 -225 -598 -302 -60
-36 -112 -61 -117 -56 -4 4 -28 41 -53 81 -49 76 -91 108 -108 81 -5 -8 -8
-16 -6 -19 1 -3 25 -50 52 -103 48 -93 49 -99 32 -112 -17 -12 -27 -7 -99 50
-96 75 -140 100 -162 92 -31 -12 -12 -43 77 -121 48 -43 87 -81 87 -85 0 -4
-27 -26 -60 -50 -99 -69 -238 -188 -352 -299 l-106 -104 -149 1 c-81 1 -229
-5 -328 -14 -272 -25 -365 -31 -365 -25 1 3 29 25 64 49 84 59 136 134 102
147 -23 9 -83 -31 -196 -130 -91 -80 -106 -90 -160 -101 -33 -7 -60 -9 -60 -5
0 9 29 47 102 133 32 37 58 69 58 70 0 1 4 16 9 33 12 41 1 60 -26 45 -11 -5
-68 -77 -126 -159 l-106 -149 -47 -7 c-70 -9 -74 -8 -74 17 0 26 35 134 69
210 12 27 21 61 21 75 0 15 12 59 26 97 34 96 38 112 25 120 -31 19 -91 -90
-99 -179 -2 -34 -15 -81 -27 -106 -34 -68 -57 -139 -64 -200 l-6 -55 -68 -8
c-38 -5 -71 -6 -74 -3 -3 2 -27 69 -54 148 -41 119 -52 144 -70 146 -20 4 -21
0 -17 -55 3 -32 21 -100 41 -153 20 -52 34 -96 32 -98 -2 -2 -21 -6 -43 -9
-39 -5 -41 -4 -122 80 -45 48 -101 95 -124 107 -52 25 -124 27 -133 4 -10 -28
9 -44 87 -75 57 -22 88 -41 125 -79 46 -46 47 -50 25 -50 -14 0 -164 -2 -333
-5 l-308 -4 -67 47 c-72 52 -160 104 -288 172 l-82 43 69 59 c69 59 82 81 54
92 -21 8 -49 -5 -134 -63 -72 -48 -75 -49 -103 -35 l-29 15 24 42 c74 126 79
147 39 147 -21 0 -51 -31 -105 -106 l-37 -51 -95 38 c-306 123 -767 237 -1095
270 -221 22 -302 22 -340 1 -55 -30 -96 -92 -115 -174 -31 -130 -30 -543 1
-748 6 -34 3 -37 -56 -80 -57 -41 -130 -120 -130 -141 0 -21 53 -6 87 24 21
18 54 45 75 60 l36 27 7 -41 c6 -37 4 -43 -34 -84 -23 -25 -41 -51 -41 -60 0
-21 33 -19 64 6 30 24 30 25 46 -76 36 -226 126 -568 196 -742 l45 -113 -42
-37 c-23 -21 -54 -46 -70 -56 -31 -20 -36 -36 -17 -55 18 -18 28 -15 100 32
l67 44 36 -59 c59 -95 135 -139 242 -139 48 0 54 -2 48 -17 -4 -10 -16 -53
-28 -95 -12 -43 -26 -78 -31 -78 -6 0 -50 23 -99 51 -87 49 -117 55 -117 25 0
-22 44 -60 128 -113 70 -44 74 -48 68 -76 -3 -17 -8 -32 -10 -34 -3 -4 -236
124 -250 138 -14 12 -63 11 -71 -2 -16 -24 10 -58 89 -116 46 -35 112 -79 145
-99 55 -33 60 -39 55 -63 -4 -14 -8 -27 -9 -29 -1 -1 -85 12 -186 29 -135 23
-219 32 -314 33 -127 1 -130 1 -133 -21 -2 -16 4 -26 20 -33 33 -14 195 -45
398 -75 96 -14 180 -28 186 -30 7 -2 4 -44 -9 -126 -14 -92 -19 -184 -21 -360
l-1 -236 -230 -31 c-126 -18 -309 -39 -405 -48 -234 -22 -360 -40 -374 -54
-17 -17 26 -48 79 -56 27 -4 122 3 232 15 240 28 650 80 685 87 25 5 27 2 33
-33 34 -198 86 -373 164 -553 22 -52 37 -97 33 -101 -17 -15 -459 -242 -602
-309 -394 -184 -491 -240 -498 -288 -4 -23 2 -26 53 -22 100 7 238 73 935 452
90 49 166 85 168 80 1 -5 26 -44 54 -88 60 -91 195 -229 273 -280 30 -19 55
-40 55 -47 0 -7 -14 -64 -31 -127 -55 -199 -42 -328 39 -413 48 -51 162 -97
243 -97 31 0 37 -5 53 -37 35 -75 127 -202 181 -252 63 -56 153 -103 233 -120
115 -24 274 -5 410 48 66 26 69 26 76 -4 10 -40 61 -65 134 -65 122 0 327 56
477 131 132 66 418 311 506 434 l32 45 112 0 112 0 6 -50 c12 -98 66 -184 141
-222 52 -27 130 -48 178 -48 36 0 38 -2 77 -77 79 -152 199 -267 328 -316 49
-19 77 -22 188 -21 122 0 136 3 239 37 60 21 110 36 110 35 11 -31 37 -65 56
-75 61 -31 295 4 460 67 154 60 332 189 522 381 85 86 114 123 144 184 33 66
38 87 38 144 0 113 -43 243 -113 345 -17 24 -31 47 -31 50 0 3 104 7 230 8
l231 3 5 -25 c33 -155 88 -290 145 -355 88 -99 222 -100 359 -1 28 20 52 36
53 36 2 0 21 -25 41 -54 104 -151 243 -183 444 -104 29 11 56 18 59 14 7 -7
-15 -80 -31 -101 -6 -8 -38 -22 -71 -30 -74 -20 -165 -60 -165 -74 0 -23 103
-26 186 -5 18 5 22 2 19 -13 -2 -10 -7 -34 -10 -55 -5 -30 -12 -38 -43 -51
-21 -8 -44 -22 -51 -31 -11 -13 -9 -16 13 -22 15 -3 38 -4 51 -2 22 5 25 2 25
-26 1 -58 30 -170 63 -241 48 -100 138 -213 269 -340 230 -224 465 -351 711
-386 219 -32 693 55 1132 208 162 56 295 114 345 148 42 29 85 88 96 129 7 30
24 32 85 11 42 -15 45 -15 62 6 9 12 17 25 17 30 0 13 -54 38 -107 49 -47 10
-49 12 -59 55 -6 25 -7 45 -2 45 5 0 35 -7 68 -17 68 -19 93 -9 88 35 -2 21
-13 29 -57 43 -29 10 -76 22 -104 25 -44 6 -58 14 -98 55 -72 74 -115 92 -240
97 -58 2 -203 -3 -323 -13 -281 -23 -342 -19 -426 26 -120 64 -210 166 -210
239 0 133 169 205 820 351 173 39 396 90 495 114 99 24 320 70 490 104 350 68
445 94 568 150 l86 40 10 -32 c5 -18 11 -43 13 -57 2 -20 8 -25 33 -25 28 0
30 2 27 33 -2 19 -10 51 -17 73 -14 39 -14 39 15 54 16 8 33 15 38 15 4 0 13
-24 18 -53 8 -47 12 -52 37 -55 38 -5 44 19 25 92 -9 34 -15 61 -15 62 11 3
211 142 272 188 221 167 421 437 472 636 9 36 17 102 17 147 1 67 -3 86 -19
110 -30 40 -137 91 -234 110 l-83 17 7 50 c52 394 17 961 -98 1564 -11 59 -12
72 -1 68 65 -25 114 -14 114 25 0 22 -32 37 -96 46 -40 5 -43 8 -54 50 -6 25
-9 47 -7 49 2 2 29 -4 61 -13 56 -16 59 -16 72 2 35 47 1 77 -103 91 l-50 6
-48 197 c-117 486 -279 873 -479 1151 -75 104 -238 269 -327 333 -320 225
-847 376 -1609 460 l-115 12 3 60 c2 33 10 85 18 115 15 50 15 55 -2 67 -10 7
-23 13 -30 13 -26 0 -63 -117 -64 -200 l0 -45 -45 3 -45 4 0 47 c1 25 9 70 19
100 18 52 18 54 0 72 -25 25 -45 24 -64 -5z"/>
</g>
</svg>
