<?xml version="1.0" standalone="no"?>
<!DOCTYPE svg PUBLIC "-//W3C//DTD SVG 20010904//EN"
 "http://www.w3.org/TR/2001/REC-SVG-20010904/DTD/svg10.dtd">
<svg version="1.0" xmlns="http://www.w3.org/2000/svg"
 width="673.000000pt" height="1280.000000pt" viewBox="0 0 673.000000 1280.000000"
 preserveAspectRatio="xMidYMid meet">
<metadata>
Created by potrace 1.15, written by Peter Selinger 2001-2017
</metadata>
<g transform="translate(0.000000,1280.000000) scale(0.100000,-0.100000)"
fill="#000000" stroke="none">
<path d="M225 12780 c-58 -64 17 -287 203 -609 40 -68 72 -126 72 -130 0 -3
-27 -37 -61 -76 -91 -105 -183 -230 -215 -292 l-28 -55 17 -62 c23 -88 40
-314 32 -431 -10 -148 -21 -189 -62 -233 -51 -54 -88 -110 -133 -203 -53 -110
-58 -138 -30 -191 40 -76 134 -192 260 -319 144 -146 224 -204 280 -204 l38 0
-21 -50 c-110 -270 -157 -530 -157 -870 0 -612 188 -1300 565 -2064 l92 -187
5 -144 c3 -80 2 -283 -3 -452 -13 -459 -45 -726 -102 -851 -23 -51 -29 -57
-123 -107 -272 -146 -373 -247 -374 -373 0 -57 34 -135 64 -147 80 -30 664
-61 770 -41 101 19 114 48 76 171 -56 184 15 307 248 425 39 20 72 41 72 47 0
11 276 923 287 951 5 9 9 -54 9 -140 4 -444 113 -747 306 -846 l53 -28 -55 6
c-211 21 -468 14 -600 -16 -238 -56 -340 -176 -295 -351 17 -67 78 -200 100
-218 8 -7 145 -14 382 -20 202 -5 456 -12 563 -15 285 -9 1310 -34 1635 -40
154 -3 304 -8 332 -11 l53 -5 98 -137 c233 -322 421 -606 605 -914 433 -722
689 -1325 762 -1793 24 -155 17 -410 -15 -510 -60 -191 -179 -332 -350 -418
-257 -129 -668 -154 -946 -58 -257 88 -459 289 -609 604 -49 104 -148 384
-190 540 -32 117 -119 166 -211 119 -106 -54 -138 -158 -115 -367 26 -229 92
-451 201 -673 292 -597 633 -871 1210 -973 125 -23 431 -17 572 9 340 64 634
216 848 438 371 385 479 940 314 1599 -38 154 -111 365 -227 655 -185 465
-301 711 -451 953 -47 75 -97 159 -110 185 -59 119 -135 335 -231 662 -57 196
-63 226 -69 340 -26 488 -140 1166 -286 1699 -239 871 -578 1567 -1036 2129
-106 130 -386 410 -504 503 -304 241 -633 425 -973 542 -16 6 -17 20 -11 184
17 473 -76 963 -260 1372 -230 508 -622 915 -1129 1170 -316 159 -377 176
-420 120 -25 -35 -25 -153 2 -264 10 -44 15 -73 10 -65 -5 8 -26 43 -47 77
-112 187 -311 351 -525 434 -113 43 -138 46 -162 19z"/>
</g>
</svg>
