<?xml version="1.0" standalone="no"?>
<!DOCTYPE svg PUBLIC "-//W3C//DTD SVG 20010904//EN"
 "http://www.w3.org/TR/2001/REC-SVG-20010904/DTD/svg10.dtd">
<svg version="1.0" xmlns="http://www.w3.org/2000/svg"
 width="1280.000000pt" height="866.000000pt" viewBox="0 0 1280.000000 866.000000"
 preserveAspectRatio="xMidYMid meet">
<metadata>
Created by potrace 1.15, written by Peter Selinger 2001-2017
</metadata>
<g transform="translate(0.000000,866.000000) scale(0.100000,-0.100000)"
fill="#000000" stroke="none">
<path d="M11075 8631 c-59 -45 -230 -186 -437 -362 -368 -312 -555 -459 -585
-459 -7 0 -13 6 -13 14 0 18 -254 149 -390 202 -174 67 -259 86 -405 92 -90 3
-162 0 -235 -11 -58 -9 -172 -24 -255 -33 -142 -15 -158 -20 -298 -75 -123
-49 -157 -59 -208 -59 -113 0 -213 69 -582 403 -85 76 -131 109 -205 146 -93
47 -102 49 -208 56 l-111 7 -30 -30 c-17 -18 -35 -50 -42 -75 -14 -57 2 -121
111 -431 86 -243 148 -439 148 -463 0 -8 -4 -12 -9 -8 -19 11 -22 -16 -11 -96
13 -94 41 -177 74 -217 12 -15 25 -34 28 -42 8 -21 -9 -191 -23 -243 -26 -91
-113 -313 -131 -333 -13 -15 -19 -35 -18 -65 1 -24 -5 -111 -13 -194 -17 -172
-11 -246 27 -357 14 -39 24 -73 23 -75 -2 -1 -149 22 -328 52 -681 113 -833
134 -1269 171 -317 27 -485 37 -660 38 -246 1 -297 8 -340 48 -11 10 -22 31
-25 46 -22 105 -171 246 -475 449 -58 38 -115 75 -128 82 -12 6 -178 45 -368
86 l-346 75 -432 -6 -431 -6 -240 -65 c-219 -60 -252 -72 -380 -138 -219 -113
-320 -179 -416 -275 -185 -183 -264 -331 -304 -564 -36 -212 -63 -249 -212
-286 -162 -41 -275 -97 -430 -214 -170 -127 -261 -275 -307 -496 -15 -74 -66
-436 -86 -620 -16 -137 -13 -512 5 -686 41 -402 161 -936 271 -1213 118 -295
325 -640 616 -1026 270 -359 301 -389 588 -584 164 -111 247 -159 370 -215 47
-21 225 -102 395 -181 171 -78 337 -149 370 -158 135 -36 419 -87 695 -127
429 -61 542 -70 1130 -91 608 -21 629 -21 1004 13 182 16 249 19 279 11 39
-11 40 -10 187 87 81 55 154 110 163 124 12 17 17 47 17 89 0 62 -2 66 -38 99
-75 68 -164 109 -497 228 -246 89 -397 128 -555 145 -74 8 -288 30 -475 50
-534 55 -591 63 -685 96 -30 10 -199 50 -375 88 -550 120 -785 187 -970 276
-79 38 -121 71 -345 265 -140 122 -264 231 -275 241 -20 20 -20 20 25 1 25
-11 115 -51 200 -89 213 -97 323 -136 493 -178 79 -19 220 -65 313 -101 239
-93 268 -103 371 -124 485 -101 896 -131 1222 -89 88 11 92 13 127 53 115 131
165 174 213 186 59 14 90 9 505 -79 285 -61 348 -71 561 -90 132 -12 265 -21
295 -21 62 0 314 38 465 70 55 12 163 25 240 30 150 9 275 33 523 102 259 72
285 79 381 98 135 29 189 26 262 -10 92 -47 176 -100 394 -250 367 -252 724
-459 895 -519 47 -17 169 -65 270 -107 463 -191 649 -257 772 -274 46 -7 130
-20 188 -30 400 -71 564 -86 743 -70 218 20 368 80 478 192 188 191 169 414
-54 639 -82 83 -261 209 -360 254 -32 15 -57 28 -55 30 2 2 93 -12 203 -31
300 -50 423 -61 547 -45 178 22 438 79 475 104 44 29 90 98 111 167 23 78 23
247 -1 317 -36 102 -200 291 -334 383 -115 80 -217 120 -327 127 -113 7 -185
-6 -286 -52 -42 -19 -93 -35 -112 -35 -65 0 -211 92 -550 349 -122 91 -227
171 -234 177 -9 7 -14 31 -14 62 0 83 45 357 50 302 1 -21 47 89 65 157 9 32
20 132 25 223 6 109 20 216 39 315 60 302 79 540 52 655 -8 30 -27 84 -43 120
-38 86 -150 270 -160 264 -4 -3 -8 59 -8 138 0 111 8 196 35 382 19 132 35
246 35 254 0 10 -7 13 -21 9 -19 -5 -19 -3 5 26 196 241 236 377 206 702 -18
182 -43 285 -99 399 -27 55 -65 124 -84 151 l-34 50 47 95 c102 204 103 205
105 390 2 113 9 202 23 281 35 197 54 404 50 562 -3 129 -5 149 -24 174 -29
39 -62 40 -109 4z m-817 -6622 c64 -56 142 -118 172 -139 169 -115 452 -255
644 -318 l111 -37 -85 -6 c-63 -5 -109 -16 -177 -43 -51 -20 -105 -36 -121
-36 -19 0 -49 16 -87 45 -32 25 -109 75 -171 110 -90 51 -152 98 -304 230
-104 91 -190 169 -190 171 0 8 80 124 86 124 3 0 58 -45 122 -101z"/>
</g>
</svg>
