<?xml version="1.0" standalone="no"?>
<!DOCTYPE svg PUBLIC "-//W3C//DTD SVG 20010904//EN"
 "http://www.w3.org/TR/2001/REC-SVG-20010904/DTD/svg10.dtd">
<svg version="1.0" xmlns="http://www.w3.org/2000/svg"
 width="1280.000000pt" height="851.000000pt" viewBox="0 0 1280.000000 851.000000"
 preserveAspectRatio="xMidYMid meet">
<metadata>
Created by potrace 1.15, written by Peter Selinger 2001-2017
</metadata>
<g transform="translate(0.000000,851.000000) scale(0.100000,-0.100000)"
fill="#000000" stroke="none">
<path d="M8220 6423 c-72 -31 -228 -169 -326 -288 l-41 -50 -139 -1 c-137 0
-211 -7 -289 -24 -77 -18 -74 -19 -205 103 -53 50 -117 100 -209 162 -47 32
-163 58 -193 43 -38 -19 -31 -74 35 -284 19 -60 39 -141 45 -180 6 -38 20 -90
31 -115 11 -24 21 -64 21 -89 0 -25 5 -61 10 -80 6 -19 13 -60 16 -90 3 -30
10 -79 16 -108 5 -30 8 -55 6 -56 -50 -41 -153 -107 -183 -117 -58 -19 -92
-44 -165 -119 -36 -38 -76 -71 -90 -74 -14 -4 -99 -11 -190 -16 -91 -5 -205
-17 -255 -26 -218 -38 -295 -55 -322 -68 -33 -17 -297 -108 -363 -126 -74 -20
-161 -51 -229 -81 -35 -16 -69 -29 -76 -29 -6 0 -56 -18 -111 -41 -54 -23
-126 -51 -160 -64 -33 -13 -90 -39 -125 -59 -36 -20 -71 -36 -77 -36 -32 0
-266 -115 -360 -177 -137 -90 -166 -115 -311 -267 -154 -162 -212 -229 -261
-301 -51 -74 -194 -209 -287 -271 -45 -29 -126 -95 -181 -146 -91 -85 -163
-150 -372 -333 -91 -80 -176 -125 -237 -125 -37 0 -50 6 -87 40 -81 75 -90
129 -32 191 54 57 148 134 201 164 170 99 269 184 281 242 7 36 -16 87 -47
104 -24 12 -128 7 -169 -9 -43 -17 -163 -71 -213 -98 -26 -13 -52 -22 -58 -19
-5 4 -9 2 -9 -2 0 -5 -15 -14 -32 -21 -38 -13 -124 -76 -175 -127 -19 -19 -39
-35 -44 -35 -5 0 -9 -7 -9 -16 0 -8 -5 -12 -10 -9 -14 9 -128 -107 -133 -136
-3 -13 -10 -52 -17 -87 -22 -111 2 -199 97 -359 24 -39 43 -75 43 -79 0 -3 9
-15 21 -25 11 -10 18 -23 14 -28 -3 -6 1 -11 9 -11 9 0 16 -5 16 -11 0 -5 4
-8 10 -4 5 3 17 -6 26 -20 9 -13 20 -22 26 -19 5 3 12 -4 15 -16 3 -13 11 -19
19 -16 8 3 14 -1 14 -9 0 -8 6 -12 13 -10 6 2 28 -4 47 -15 114 -62 141 -70
224 -70 89 0 159 13 164 29 2 6 8 11 14 11 10 0 88 35 190 85 30 14 70 42 90
61 20 19 41 34 47 34 6 0 21 11 33 25 12 14 26 25 32 25 12 0 183 178 191 198
3 7 9 11 14 8 4 -3 16 10 27 29 10 18 21 32 25 29 5 -2 13 5 19 16 13 25 39
26 46 3 18 -58 61 -150 77 -166 18 -18 18 -21 2 -85 -9 -37 -19 -78 -22 -91
-9 -37 24 -87 81 -125 74 -49 352 -186 377 -186 8 0 38 -9 67 -20 29 -11 70
-20 91 -20 62 0 196 -29 282 -61 44 -16 100 -29 124 -29 62 0 90 -13 157 -75
48 -45 73 -59 141 -81 45 -15 104 -27 130 -28 43 -1 52 3 73 29 43 54 57 94
51 146 -7 60 -37 119 -89 175 -39 42 -40 46 -33 91 4 27 12 54 17 61 18 21 71
42 118 46 24 2 46 8 48 14 2 6 10 8 18 5 7 -3 17 2 20 11 3 9 12 16 19 16 6 0
20 9 30 20 10 11 29 20 43 20 23 0 62 32 62 52 0 5 12 14 28 21 32 14 72 47
72 59 0 5 23 30 52 56 28 26 62 58 75 71 12 13 23 19 23 12 0 -18 38 9 44 32
2 10 9 16 15 12 6 -3 14 1 17 10 4 9 13 14 20 11 8 -3 14 -1 14 5 0 6 6 9 14
6 8 -3 23 3 35 14 12 11 26 17 31 14 6 -3 10 -1 10 5 0 6 4 9 9 6 4 -3 17 1
27 9 10 8 29 15 41 15 12 0 25 5 28 11 4 6 13 8 21 5 8 -3 14 -1 14 5 0 6 4 8
9 5 5 -3 14 1 21 9 6 7 17 12 25 9 7 -3 15 -2 18 3 3 4 28 8 56 8 28 0 51 3
51 7 0 8 244 0 334 -11 37 -4 69 -4 72 0 7 11 55 -5 102 -35 33 -21 42 -32 42
-54 0 -39 35 -144 71 -210 16 -30 29 -61 29 -69 0 -8 7 -29 14 -46 8 -18 25
-61 36 -97 12 -36 27 -72 34 -80 17 -19 66 -128 66 -145 0 -20 90 -195 101
-195 5 0 9 -21 9 -47 0 -27 6 -60 14 -74 7 -14 16 -38 20 -54 12 -46 46 -116
68 -139 20 -20 108 -197 108 -215 0 -5 20 -27 45 -49 66 -58 138 -76 252 -62
82 10 151 27 215 52 37 14 60 52 72 123 l11 60 45 -2 c191 -6 252 -3 290 17
22 11 46 20 54 20 20 0 36 31 36 67 0 31 -33 105 -65 144 -34 43 -114 98 -153
105 -79 15 -95 28 -144 116 -56 100 -66 147 -71 345 -3 83 -8 157 -12 163 -4
7 -9 45 -11 84 -2 39 -6 132 -10 206 -11 194 -6 322 15 420 6 25 12 62 15 83
2 20 9 44 16 52 6 8 9 19 5 24 -3 6 6 44 19 85 14 42 28 92 32 113 9 61 10 67
22 96 7 15 13 47 15 70 1 23 6 48 10 54 5 7 12 36 17 65 57 335 61 367 62 523
1 162 -3 233 -16 254 -8 12 -14 91 -7 91 3 0 16 -10 30 -22 24 -21 24 -21 -1
8 -38 41 -36 75 2 42 8 -7 6 -3 -3 8 -22 27 -14 83 18 122 4 4 55 -20 120 -57
73 -42 160 -107 241 -181 33 -30 22 -16 -26 31 -83 82 -177 152 -280 208 -42
23 -46 28 -39 50 8 19 14 22 37 17 43 -11 185 -81 254 -126 35 -23 50 -30 33
-16 -44 38 -154 102 -232 136 -124 53 -65 71 97 30 41 -10 76 -17 78 -15 6 5
-98 34 -170 47 -70 12 -73 14 -60 36 8 12 25 11 182 -13 27 -4 24 -2 -12 9
-25 7 -71 17 -102 20 -31 4 -56 10 -56 14 0 7 5 24 45 150 15 46 24 152 30
357 1 55 8 127 14 160 7 33 16 89 21 125 4 36 13 83 19 105 6 22 11 84 11 138
0 84 -3 100 -20 117 -24 24 -70 25 -120 3z m-741 -3825 c31 -75 40 -97 69
-178 16 -47 33 -101 37 -120 4 -19 20 -78 36 -130 28 -94 43 -119 138 -231 33
-38 31 -49 -6 -49 -46 0 -136 151 -153 255 -13 79 -36 151 -84 261 -29 68 -41
109 -61 207 -5 29 10 19 24 -15z"/>
<path d="M8445 5210 c11 -5 27 -9 35 -9 9 0 8 4 -5 9 -11 5 -27 9 -35 9 -9 0
-8 -4 5 -9z"/>
<path d="M8460 5140 c8 -5 20 -10 25 -10 6 0 3 5 -5 10 -8 5 -19 10 -25 10 -5
0 -3 -5 5 -10z"/>
</g>
</svg>
