<?xml version="1.0" standalone="no"?>
<!DOCTYPE svg PUBLIC "-//W3C//DTD SVG 20010904//EN"
 "http://www.w3.org/TR/2001/REC-SVG-20010904/DTD/svg10.dtd">
<svg version="1.0" xmlns="http://www.w3.org/2000/svg"
 width="1280.000000pt" height="1126.000000pt" viewBox="0 0 1280.000000 1126.000000"
 preserveAspectRatio="xMidYMid meet">
<metadata>
Created by potrace 1.15, written by Peter Selinger 2001-2017
</metadata>
<g transform="translate(0.000000,1126.000000) scale(0.100000,-0.100000)"
fill="#000000" stroke="none">
<path d="M2390 11253 c-283 -44 -406 -103 -545 -259 -44 -49 -112 -120 -151
-159 -40 -38 -83 -92 -97 -120 -47 -96 -106 -289 -452 -1485 -440 -1520 -508
-1761 -615 -2210 -66 -273 -119 -448 -250 -819 -147 -418 -177 -517 -195 -646
-8 -55 -21 -126 -29 -157 -8 -32 -24 -127 -36 -212 l-22 -154 32 -189 c62
-372 71 -400 189 -548 82 -104 114 -161 176 -316 63 -156 167 -355 318 -605
l128 -212 5 -293 c6 -316 10 -356 75 -704 46 -243 48 -249 161 -425 41 -63
161 -249 267 -413 370 -575 437 -669 505 -704 17 -9 90 -57 161 -108 222 -158
330 -213 530 -269 111 -32 128 -32 223 0 102 34 167 76 198 130 23 39 26 55
25 131 0 47 -3 105 -7 128 -13 87 -76 158 -150 170 -19 3 -50 8 -70 11 -29 4
-54 24 -127 99 -51 51 -213 204 -362 340 -148 135 -278 260 -287 278 -27 47
-25 170 2 197 11 11 31 20 45 20 29 0 555 -266 635 -321 58 -40 472 -219 554
-240 55 -14 160 -9 346 17 191 26 198 28 257 90 l53 55 372 -96 c205 -53 429
-112 497 -131 150 -42 210 -55 411 -88 85 -14 236 -44 335 -66 465 -106 426
-101 780 -109 176 -4 329 -4 339 -1 11 4 38 2 59 -3 27 -7 73 -6 146 2 146 15
469 14 631 -4 74 -8 286 -30 470 -50 184 -19 476 -51 649 -70 172 -20 322 -33
332 -30 36 12 300 -38 1482 -279 258 -53 488 -96 512 -96 23 0 71 -9 106 -20
35 -10 84 -22 109 -26 25 -4 57 -13 71 -20 15 -7 69 -18 120 -24 52 -6 129
-15 172 -20 43 -6 99 -19 124 -30 25 -11 51 -20 58 -20 8 0 43 -16 79 -35 37
-19 76 -35 89 -35 12 0 33 -7 47 -15 50 -28 106 -53 161 -70 50 -15 66 -16
140 -5 160 23 235 27 327 18 79 -9 100 -7 137 7 55 21 101 72 115 127 5 24 16
66 24 93 22 74 28 155 12 155 -7 0 -18 11 -24 25 -6 13 -39 45 -73 70 -50 37
-69 45 -104 45 -47 0 -62 10 -124 83 -54 63 -55 100 -5 148 20 18 58 63 85 99
43 57 49 70 49 114 0 94 -54 163 -177 225 -116 58 -132 61 -653 85 -191 10
-365 48 -615 136 -126 45 -304 108 -395 140 -604 213 -1251 449 -1263 460 -15
13 24 40 58 40 19 0 57 -5 85 -11 70 -15 111 -5 153 36 28 27 44 35 72 35 65
0 136 50 158 114 4 10 14 48 21 86 8 37 28 95 45 128 17 34 31 77 31 96 0 22
-21 77 -56 149 -68 139 -77 201 -49 322 l18 76 -31 32 c-28 29 -32 40 -32 88
0 48 -6 65 -41 120 -114 176 -213 269 -381 355 -98 50 -111 60 -143 109 -29
45 -46 60 -106 90 -131 66 -187 145 -289 408 -98 253 -117 286 -197 346 -37
28 -75 51 -84 51 -9 0 -54 -26 -100 -57 -184 -124 -249 -185 -249 -233 0 -16
-34 -58 -112 -137 l-113 -113 -130 -19 c-71 -11 -141 -24 -155 -29 -37 -14
-125 -86 -200 -163 -73 -74 -51 -67 -260 -88 -112 -12 -263 -48 -338 -81 -24
-11 -56 -20 -70 -20 -27 0 -912 310 -975 342 -21 11 -66 40 -100 65 -72 52
-138 88 -185 98 -39 8 -118 67 -302 224 -239 204 -1133 1003 -1534 1370 -196
180 -222 202 -277 226 -24 11 -123 78 -219 149 -382 280 -388 283 -1045 575
-324 144 -598 268 -607 275 -9 7 -54 100 -98 207 -153 366 -153 348 -35 1214
30 220 66 488 80 595 40 300 30 258 306 1200 22 74 50 149 62 166 34 49 208
203 252 224 33 15 74 20 225 25 l185 7 490 -71 c674 -96 694 -98 750 -77 142
55 163 239 36 321 -50 32 -674 239 -798 264 -55 12 -123 21 -150 21 -62 0
-256 24 -404 50 -105 18 -197 23 -259 13z"/>
</g>
</svg>
