<?xml version="1.0" standalone="no"?>
<!DOCTYPE svg PUBLIC "-//W3C//DTD SVG 20010904//EN"
 "http://www.w3.org/TR/2001/REC-SVG-20010904/DTD/svg10.dtd">
<svg version="1.0" xmlns="http://www.w3.org/2000/svg"
 width="1280.000000pt" height="690.000000pt" viewBox="0 0 1280.000000 690.000000"
 preserveAspectRatio="xMidYMid meet">
<metadata>
Created by potrace 1.15, written by Peter Selinger 2001-2017
</metadata>
<g transform="translate(0.000000,690.000000) scale(0.100000,-0.100000)"
fill="#000000" stroke="none">
<path d="M8540 6860 c-686 -116 -1109 -217 -2372 -564 -1148 -315 -1703 -408
-2353 -393 -318 7 -525 31 -825 94 -121 25 -130 26 -385 20 -154 -4 -297 -13
-350 -21 -49 -9 -93 -15 -97 -16 -4 0 -10 26 -14 58 -4 31 -13 75 -21 97 -8
22 -21 78 -29 124 -14 87 -38 147 -67 165 -12 7 -34 4 -84 -12 -116 -37 -221
-136 -315 -297 -23 -38 -42 -71 -43 -73 -1 -2 -36 22 -76 52 -155 117 -367
162 -564 121 -90 -19 -166 -58 -289 -146 l-100 -72 -15 24 c-69 104 -190 211
-290 256 -71 32 -209 52 -221 32 -18 -29 -32 -156 -26 -234 11 -152 54 -266
138 -367 80 -97 102 -182 117 -463 6 -98 17 -192 26 -222 20 -67 70 -139 122
-179 l43 -33 -53 -17 c-71 -23 -180 -78 -198 -100 -13 -16 -12 -17 6 -10 171
67 255 81 314 49 19 -10 36 -23 38 -30 4 -10 -91 -51 -192 -83 -73 -23 -187
-92 -174 -105 2 -2 58 16 124 40 132 47 215 62 258 46 22 -9 27 -17 27 -44 0
-41 -16 -56 -127 -122 -89 -52 -172 -119 -161 -130 3 -3 26 9 51 28 25 19 93
59 151 88 l105 54 32 -30 c17 -17 57 -64 89 -105 107 -140 193 -198 277 -186
54 7 102 31 219 111 135 93 168 99 305 61 150 -41 221 -84 385 -232 l90 -82
57 -144 c31 -79 84 -217 118 -308 66 -177 132 -327 183 -419 21 -38 48 -118
80 -246 55 -215 102 -356 154 -465 32 -68 35 -83 35 -160 0 -100 -13 -186 -53
-366 -90 -405 -273 -928 -383 -1094 -39 -59 -47 -66 -98 -81 -31 -10 -137 -31
-235 -48 -98 -16 -205 -40 -237 -52 -64 -24 -143 -89 -177 -145 -34 -54 -55
-267 -31 -313 26 -48 104 -65 230 -52 64 7 96 6 130 -5 25 -7 123 -18 216 -23
94 -6 194 -16 223 -24 49 -13 55 -13 102 9 128 59 236 153 414 361 182 213
207 251 291 433 82 178 139 266 195 304 37 24 38 26 59 143 43 231 113 497
201 763 21 63 48 147 60 185 43 139 132 236 285 310 102 49 243 98 334 116 82
16 204 8 262 -18 41 -18 47 -26 54 -59 11 -61 71 -210 126 -313 92 -173 207
-324 484 -636 216 -244 286 -330 376 -464 124 -184 201 -366 234 -555 21 -122
19 -148 -14 -214 -42 -83 -71 -186 -71 -251 0 -51 3 -60 32 -89 48 -46 97 -62
206 -68 53 -2 127 -10 163 -16 63 -10 70 -9 124 16 60 27 99 33 110 16 10 -17
19 -12 106 53 109 83 209 190 245 262 43 88 44 151 4 272 -42 127 -184 530
-300 853 -186 515 -310 894 -369 1122 -32 123 -61 275 -61 319 l0 26 173 1
c332 1 569 44 1167 212 419 117 775 200 798 186 5 -3 26 -35 48 -72 60 -102
176 -236 334 -384 350 -327 422 -406 512 -562 48 -82 92 -199 104 -273 10 -70
-154 -611 -233 -770 -34 -66 -102 -161 -150 -207 -36 -35 -47 -39 -186 -68
-298 -62 -400 -128 -433 -282 -20 -93 -18 -167 6 -206 24 -39 38 -45 150 -67
257 -49 259 -49 326 -38 49 9 73 9 97 0 18 -7 84 -12 147 -12 136 0 191 19
257 88 l41 42 5 105 c10 185 50 328 146 525 95 194 209 356 450 637 111 130
130 148 156 148 38 -1 54 -13 91 -70 29 -45 29 -46 28 -190 0 -163 -18 -248
-82 -394 -59 -137 -58 -136 -168 -167 -185 -53 -310 -132 -369 -234 -60 -102
-72 -297 -21 -347 10 -11 76 -13 312 -11 263 2 309 5 377 22 171 44 204 81
277 306 24 72 53 150 65 175 13 25 30 87 39 137 28 160 75 271 206 483 46 74
96 156 110 183 l27 47 51 -82 c213 -347 634 -592 1157 -673 138 -22 444 -31
517 -16 123 26 222 99 305 225 72 109 102 344 55 433 -12 23 -25 44 -30 47
-10 6 -113 -21 -367 -93 -386 -111 -586 -118 -772 -30 -90 42 -225 177 -363
364 -57 77 -129 172 -160 210 -205 255 -333 572 -389 961 -45 311 -50 653 -21
1362 7 150 10 422 7 605 -4 289 -7 343 -25 417 -92 385 -314 653 -870 1054
-249 179 -419 227 -805 225 -198 -1 -227 -3 -437 -39z m1555 -2220 c21 -168
33 -363 45 -735 14 -448 29 -653 66 -885 4 -25 4 -42 1 -39 -9 8 -63 336 -86
524 -44 356 -61 656 -60 1045 1 307 5 317 34 90z m122 -1702 c-3 -7 -5 -2 -5
12 0 14 2 19 5 13 2 -7 2 -19 0 -25z m10 -40 c-3 -8 -6 -5 -6 6 -1 11 2 17 5
13 3 -3 4 -12 1 -19z m10 -50 c-3 -8 -6 -5 -6 6 -1 11 2 17 5 13 3 -3 4 -12 1
-19z"/>
</g>
</svg>
