<?xml version="1.0" standalone="no"?>
<!DOCTYPE svg PUBLIC "-//W3C//DTD SVG 20010904//EN"
 "http://www.w3.org/TR/2001/REC-SVG-20010904/DTD/svg10.dtd">
<svg version="1.0" xmlns="http://www.w3.org/2000/svg"
 width="640.000000pt" height="1280.000000pt" viewBox="0 0 640.000000 1280.000000"
 preserveAspectRatio="xMidYMid meet">
<metadata>
Created by potrace 1.15, written by Peter Selinger 2001-2017
</metadata>
<g transform="translate(0.000000,1280.000000) scale(0.100000,-0.100000)"
fill="#000000" stroke="none">
<path d="M2315 12744 c-424 -333 -783 -987 -860 -1564 -35 -264 -30 -247 -104
-320 -81 -81 -212 -226 -234 -260 -19 -30 -297 -703 -409 -990 -144 -369 -248
-696 -301 -945 -77 -359 -104 -537 -118 -778 -17 -294 5 -633 86 -1337 42
-369 55 -544 65 -880 15 -504 35 -788 115 -1680 103 -1151 126 -1622 91 -1860
-25 -176 -13 -157 -109 -161 -72 -4 -90 -8 -133 -34 -131 -80 -205 -310 -147
-450 12 -27 31 -82 42 -122 31 -106 49 -123 146 -135 44 -5 90 -12 102 -14 27
-5 45 -39 103 -194 23 -63 53 -127 67 -142 34 -36 131 -82 228 -108 44 -12 95
-34 114 -48 49 -37 139 -71 187 -72 83 0 174 38 264 110 25 20 66 48 92 63
128 74 223 210 343 492 25 61 64 148 85 195 22 47 57 146 79 220 65 222 139
422 165 449 43 43 146 53 558 55 203 0 368 0 368 -1 0 -1 -55 -46 -122 -100
-241 -192 -325 -304 -316 -418 3 -36 12 -65 26 -83 12 -15 32 -50 45 -78 45
-94 133 -157 297 -209 209 -68 476 -20 815 145 155 75 507 287 660 397 308
221 626 538 716 716 11 21 21 37 22 35 1 -1 -1 -113 -4 -248 -5 -177 -11 -259
-22 -295 -9 -27 -20 -66 -26 -85 -18 -58 -104 -222 -153 -291 -125 -175 -248
-270 -535 -417 -271 -137 -283 -142 -1238 -466 -726 -247 -1138 -328 -1575
-312 -251 9 -405 35 -660 111 -80 24 -175 48 -210 55 -36 7 -93 23 -128 36
-75 29 -93 30 -123 5 -50 -40 -16 -187 66 -287 19 -23 85 -75 147 -117 326
-217 647 -308 1148 -324 718 -22 1673 194 2707 612 244 99 386 170 531 265
396 260 687 596 798 923 14 40 39 151 56 247 27 147 32 199 32 325 -1 130 -4
164 -27 250 -38 143 -153 370 -257 505 -44 58 -115 151 -159 208 -43 57 -91
126 -106 154 l-28 51 -2 366 c-1 307 -5 393 -23 531 -48 369 -86 550 -233
1095 -95 350 -344 1006 -504 1325 -79 158 -124 235 -317 545 -235 380 -316
518 -380 655 -145 306 -195 389 -277 461 l-53 46 49 12 c63 16 201 81 255 121
24 17 61 57 83 90 45 67 47 68 205 96 123 23 338 23 439 1 41 -9 103 -30 139
-47 36 -17 67 -28 69 -26 9 9 -100 58 -175 78 -110 30 -374 30 -516 0 -55 -12
-101 -20 -103 -18 -2 1 2 16 7 33 l11 30 132 6 c73 4 200 15 282 26 268 35
413 43 526 31 120 -13 236 -48 299 -90 90 -60 95 -62 60 -30 -48 43 -137 87
-229 112 -115 32 -352 29 -626 -6 -115 -14 -263 -29 -329 -33 -112 -6 -118 -5
-114 13 2 13 15 20 48 26 135 22 459 81 485 89 55 16 -61 0 -255 -36 -102 -18
-204 -37 -227 -40 l-43 -7 0 40 0 40 83 30 c105 38 210 67 317 88 113 23 323
23 405 2 104 -28 112 -29 75 -12 -158 73 -476 49 -773 -57 l-109 -38 7 42 c19
121 55 209 174 415 116 201 201 405 220 528 10 63 1 177 -18 227 -12 31 -37
226 -51 399 -13 152 1 302 36 408 27 80 96 200 138 239 30 28 34 46 8 31 -9
-5 -46 -23 -81 -40 l-63 -31 81 105 c44 58 78 106 76 106 -14 0 -113 -44 -137
-62 l-29 -20 7 29 c4 15 29 54 57 86 85 99 216 305 292 460 41 81 96 178 123
215 91 122 254 414 239 428 -2 2 -29 -7 -60 -21 -31 -13 -206 -84 -389 -156
-378 -150 -500 -201 -681 -287 -323 -154 -742 -201 -1036 -116 -176 51 -342
150 -419 249 -24 30 -82 101 -130 158 -108 127 -162 199 -199 265 -15 29 -30
52 -33 51 -3 0 -36 -25 -75 -55z m-712 -8864 c1 -87 -4 -190 -12 -235 -10 -62
-74 -364 -114 -540 -4 -18 -5 -18 -6 3 0 12 15 116 34 230 57 340 66 419 73
597 7 212 22 178 25 -55z"/>
<path d="M4360 8810 c85 -4 191 -15 235 -25 86 -18 209 -63 263 -97 18 -11 35
-18 38 -15 6 6 -63 45 -134 75 -113 48 -197 63 -382 67 l-175 3 155 -8z"/>
</g>
</svg>
